<svg id="Ebene_1" data-name="Ebene 1" xmlns="http://www.w3.org/2000/svg" xmlns:xlink="http://www.w3.org/1999/xlink" viewBox="0 0 1325.09 599.96"><defs><style>.cls-1{fill:none;}.cls-2{clip-path:url(#clip-path);}.cls-3{fill:#928073;}</style><clipPath id="clip-path" transform="translate(-21.91 -80)"><rect class="cls-1" x="21.91" y="80" width="1325.09" height="599.96"/></clipPath></defs><g class="cls-2"><path class="cls-3" d="M1164.46,579c-36.54,0-97-11.12-97-54.14,0-47.34,71.09-72.09,111.62-72.09,67.1,0,116.43,24.25,142.34,61.29-33.22,43.85-102.31,64.94-157,64.94m14.78-179.55c0-4.48,13.62-17.77,13.62-23.75,0-3.32-2.65-5.48-8.14-5.48-8.63,0-18.93,10.46-27.57,20.1l-.16-.17c4.31-5.81,7.3-11.12,7.3-14.28,0-3.66-2.82-5.65-8.63-5.65-6.65,0-12.13,4.49-19.77,13.62l1.5,1c6.14-7.31,11-11.3,13.78-11.3a1.63,1.63,0,0,1,1.83,1.66c0,3.83-11.3,18.77-16.44,25.91a4,4,0,0,0-.83,2,1.1,1.1,0,0,0,1.16,1h8.64c1.66,0,3.15-.84,4.81-2.83,3.32-4.15,23.42-27.57,29.73-27.57a.88.88,0,0,1,1,1c0,3.82-14.62,16.6-14.62,24.91,0,3.49.8,5.38,5.51,7,9.58,3.31,21.59,3,34.37,2.29,17.31-1,34-6.81,56.13-6.81,37.87,0,78.39,17.28,78.39,55a91.29,91.29,0,0,1-16.44,52.65c-25.75-35.38-73.91-59.46-145.17-59.46-43.85,0-119.42,23.58-119.42,75.57,0,43.35,64.78,55.81,104.64,55.81,55.64,0,125.07-20.59,159-64.61A116.06,116.06,0,0,1,1342,580.8c0,51.49-25.25,81.05-58.47,97l1,2.16c35.21-15.61,62.45-47.84,62.45-99.16,0-24.75-6.81-48.17-20.43-68.27a95.63,95.63,0,0,0,17.27-55.47c0-38.53-33.38-62.12-67.76-62.12-26.41,0-62.11,8.6-68.73,9.11-12.19.94-25.21-2.54-25.95-2.8-1.25-.43-2.16-.5-2.16-1.83m-71.75,2.66c-3.15,0-3.82-1.49-3.82-4a17.37,17.37,0,0,1,1.5-6c12.79,0,27.4-5.82,27.4-15.45,0-2.49-1.49-6.48-11-6.48-15.28,0-30.06,14.62-30.06,27.24,0,3.82,2.65,7.64,11,7.64,16.28,0,28.9-13.12,35.88-21.42l-1.5-1c-10.8,13-22.09,19.43-29.4,19.43m-1.66-11.79c4.65-9.8,12-17.61,15.61-17.61,1.33,0,1.83.67,1.83,1.66,0,5.15-7,15-17.44,16m-74.74-5.48c6.14-7.31,11-11.3,13.79-11.3a1.62,1.62,0,0,1,1.82,1.66c0,3.83-11.29,18.77-16.44,25.91a4.11,4.11,0,0,0-.83,2,1.1,1.1,0,0,0,1.16,1h8.64c1.66,0,3.15-.84,4.81-2.83,3.33-4.15,23.42-27.57,29.74-27.57a.88.88,0,0,1,1,1c0,3.82-14.61,16.6-14.61,24.91,0,3.49,3.15,5.48,8.13,5.48,12.46,0,24.59-13.12,31.56-21.42l-1.49-1c-10.8,13-19.93,18.6-23.25,18.6-1.33,0-2.17-.5-2.17-1.83,0-4.48,13.63-17.77,13.63-23.75,0-3.32-2.66-5.48-8.14-5.48-8.64,0-18.94,10.46-27.57,20.1l-.17-.17c4.32-5.81,7.31-11.12,7.31-14.28,0-3.66-2.83-5.65-8.64-5.65-6.64,0-12.13,4.49-19.76,13.62Zm-18.77-14.62c-17.11,0-30.73,15.78-30.73,26.58,0,5.14,3.49,8.3,13,8.3,20.59,0,31.22-16.11,31.22-25.74,0-4.32-3-9.14-13.45-9.14m2.49,2.16c2.16,0,3.16,1,3.16,3.15,0,7.31-14.79,27.58-22.43,27.58-2.16,0-2.82-1.17-2.82-3.16.66-9.63,14.78-27.57,22.09-27.57m-36.87,1.33a2.42,2.42,0,0,0,.5-1.33c0-.5-.5-1-1.5-1H970.8c-3.16,0-5.15,1.67-6.81,4-5,7-13.79,19.43-13.79,24.25,0,3.49,2,5.48,7.64,5.48,12.79,0,24.25-13.12,31.23-21.42l-1.5-1c-10.8,12.46-18.77,18.6-22.92,18.6-1.33,0-2.16-.5-2.16-1.83,0-4.15,11.46-19.43,15.45-25.74m5.31-17.44c3.82,0,7.48-3.16,7.48-6.81a5.44,5.44,0,0,0-5.32-5.15c-4,0-7.64,3.49-7.64,6.81,0,2.49,1.33,5.15,5.48,5.15m-39.86,4.82c-9.47,14.28-21.26,32.38-21.26,38.7,0,3.82,2.82,5.31,7.64,5.31,12.79,0,24.09-13.12,31.06-21.42l-1.49-1c-10.8,12.46-18.11,18.27-22.76,18.27-1.66,0-2.16-.83-2.16-1.66,0-4.49,12.13-23.59,21.59-38.2h43.52c.83,0,2-.67,2-1.66,0-.83-38.2-1-44.18-1.17,3.82-5.81,7.15-10.3,11.46-16.44a4.23,4.23,0,0,0,.67-1.66c0-.83-.67-1.33-2-1.33h-4.81c-4.82,0-7.48,3.65-17.61,19.43-5.64.34-19.76-.33-19.76,1.83,0,.33,0,.83.49.83Zm-36.71,40.19c-1.16,0-1.82-.66-1.82-2,0-4.15,11.46-19.44,15.44-25.75a2.42,2.42,0,0,0,.5-1.33c0-.49-.33-1-1.33-1h-7.3c-2.66,0-3.66,1-5,2.82l-.33.5c-1.5-2.16-4.65-4.32-9.8-4.32-16.28,0-31.72,14.95-31.72,27.07,0,3.16,1.16,7.81,9.3,7.81,8,0,14-4.32,19.76-10.79v.16a10.82,10.82,0,0,0-1.66,5.32c0,3.15,2.16,5.31,7.14,5.31,12.79,0,24.42-13.12,31.4-21.42l-1.5-1c-10.79,13-19.27,18.6-23.09,18.6M899,372.35c1.83,0,4,.5,4,3.49,0,6.48-14.62,25.58-22.92,25.58a2.53,2.53,0,0,1-2.66-2.66c0-8,13-26.41,21.59-26.41m-58.13,32.89c-1,0-1.16-1.33-1.16-1.83,0-2.82,5.31-10.63,10.13-16.94-3.16,11-6.15,18.77-9,18.77M795.57,291.3c0,32.05-28.57,63.44-61,79.06,2.82-35.88,28.73-67.27,59.63-88.86a37.7,37.7,0,0,1,1.33,9.8M655.38,429.82c-38,0-67.27-19.27-67.27-52.49,0-69.59,88.2-124.24,154.8-124.24,25.75,0,44,9.31,50.33,25.25-33,22.09-60.79,55.31-62.78,94-12,5.15-22.14,6-33.44,6-24.58,0-40.52-5.65-42.85-25.58l-2.66.16c.84,22.26,19.94,28.57,45.18,28.57,11.3,0,21.48-.71,33.6-5.69V377a47.52,47.52,0,0,0,12,32.22c-26.74,13-55.81,20.6-86.87,20.6M925.5,387.59c-32.88,30.56-84.92,41.07-121.46,41.07-22.26,0-43.19-6.32-56.31-19.1,46.34-23.76,85.21-63.79,116.1-109.46-4,23.42-5.65,56.14-10.79,74.91l-1.17,4c-5.48,6.8-15.94,19.26-15.94,26.57,0,2.32,1.49,3.32,3.48,3.32,12.13,0,25.92-25.58,29.07-38.2l2-9.8a502,502,0,0,1,61.13-58.8c81.22-65.94,173.73-102,241.83-102,62.12,0,88,29.4,88,67.77,0,69.76-89.85,172.4-225.22,172.4-41.19,0-101.93-.2-107.25-51.36,0,0-3.65-3.16-3.49-1.33m110.74,55.52c138.19,0,234.19-103.32,234.19-176.23,0-39.86-28.57-70.59-94.67-70.59-70.59,0-166.43,37.37-246.15,103.48a534.51,534.51,0,0,0-58.3,56.14c3.15-22.59,3.15-49.5,5.81-67.11,3.15-6.31,9.13-14.28,9.13-19.6,0-3.82-3.65-4.31-5-4.31-8.8,0-14.45,17.44-17.11,29.73C833.6,341,793.57,383,745.74,407.4c-7.14-8-11.3-18.11-11.3-30.73V374c35.38-16.11,67.44-49.83,67.44-83.55a38.66,38.66,0,0,0-2.16-12.62c25.08-16.11,52.82-25.74,73.75-25.74,20.09,0,38,3.65,47.17,15l1.49-1.67c-8.64-11.62-27.9-15.94-48.66-15.94-21.26,0-49.34,9.47-74.92,25.41-7.8-16.44-28.4-25.58-55.3-25.58-67.27,0-163.78,55.64-163.78,129.39,0,35.71,34.39,54,75.08,54,32.39,0,62.29-8,89.69-21.42,13.62,13.95,35.71,21.09,59.3,21.09,37,0,87.91-10.17,122.46-40.73,7.15,50.82,68.38,51.53,110.24,51.53" transform="translate(-21.91 -80)"/><path class="cls-3" d="M446.61,405.23c16,0,27.3-9.32,47.61-9.32,32.78,0,50.26,19.63,50.26,48.43,0,46.44-46.77,88.71-104.69,88.71-33.79,0-73.57-13.15-73.57-51.93,0-19.47,11.82-36.95,28.13-41.44l-.33-1.83c-16.81,4.49-31.13,23.13-31.13,43.27,0,41.11,38.12,54.59,75.4,54.59,60.25,0,109.69-41.27,109.69-93.53,0-30.46-18.65-52.77-49.44-52.77-18.14,0-34.28,12.32-45.1,12.32-1.17,0-4.16-.67-4.16-5,0-4,2.33-11.32,9.82-25,14.31-26,39.78-63.75,58.42-63.75,7.15,0,11.65,3.17,12.65,10.49h2a12.58,12.58,0,0,0,1.17-5.16c0-4.49-4.33-7.49-13.82-7.49-40.44,0-83.05,74.73-83.05,90.88,0,3.49,1.5,8.49,10.15,8.49m-23.46-33.46c14.31-26,39.78-63.75,58.42-63.75,7.16,0,11.65,3.17,12.65,10.49h2a12.72,12.72,0,0,0,1.16-5.16c0-4.49-4.33-7.49-13.81-7.49-40.45,0-83.06,74.73-83.06,90.88,0,3.49,1.5,8.49,10.15,8.49,12.65,0,24.64-13.15,31.63-21.48l-1.5-1c-10.65,12.48-19.31,18.64-23.3,18.64-1.17,0-4.16-.34-4.16-4.66,0-4,2.33-11.32,9.82-25M381.7,401.4c-1.16,0-1.83-.67-1.83-2,0-4.16,11.49-19.47,15.48-25.8a2.42,2.42,0,0,0,.5-1.33c0-.5-.33-1-1.33-1H387.2c-2.67,0-3.66,1-5,2.83l-.33.5c-1.5-2.16-4.66-4.33-9.82-4.33-16.31,0-31.79,15-31.79,27.13,0,3.17,1.17,7.83,9.32,7.83,8,0,14-4.33,19.81-10.82v.16a10.81,10.81,0,0,0-1.67,5.33c0,3.16,2.17,5.33,7.16,5.33,12.82,0,24.47-13.15,31.46-21.48l-1.5-1c-10.82,13-19.31,18.64-23.14,18.64m-7.65-29c1.83,0,4,.5,4,3.49,0,6.49-14.64,25.63-23,25.63a2.53,2.53,0,0,1-2.66-2.66c0-8,13-26.46,21.64-26.46m-61.42-23.8c-2.66,0-5.32-1.34-5.32-3.17,0-3.49,6.32-6.65,12.15-6.65a12.15,12.15,0,0,1,9.32,4.66,27.46,27.46,0,0,1-16.15,5.16m-39.28-37.95a10.64,10.64,0,0,1,9,6A83.51,83.51,0,0,1,266,325.33c-4.83,2-12.15,4.83-20.31,8.66,2-11.15,15-23.3,27.63-23.3m-29.46,29.12,1.67-.49a10.81,10.81,0,0,1-.17-2.33v-.84c8.65-4,16.31-7,21.3-9.15a96.87,96.87,0,0,0,16.48-8.82,19.23,19.23,0,0,1,.83,5.66c0,18-25.13,39.44-42.77,39.44-9.82,0-16.31-5.32-17.14-16a186.36,186.36,0,0,1,19.64-10.48v.5a13,13,0,0,0,.16,2.49M273.35,309c-14,0-27.79,13.15-29.46,25.8a193.36,193.36,0,0,0-19.8,10.65V345a45,45,0,0,1,1.16-10c4-17.15,31.79-50.93,79.73-53.1-1.5,14.82-10.49,25.47-19.81,32.63-2.83-4-7.66-5.5-11.82-5.5M241.06,365c20.31,0,46.61-20.81,46.61-41.28A17.35,17.35,0,0,0,286,316c9.82-7.49,19.14-18.47,20.64-34.12,1,0,2-.16,3-.16a37.88,37.88,0,0,1,24.8,8.82c-18,11.48-33,27.79-43.78,45.44C266,376.6,240.23,402.73,216.1,402.73c-9,0-20.48-4.16-20.48-17.81,0-15,12.15-27.13,26.8-36.62,1,11.32,8.32,16.65,18.64,16.65m-27.79-99.37c-12.32,0-32.29,9.66-32.29,27.13,0,10.65,6,13.82,11.81,13.82a18,18,0,0,0,3-.34l-.67-1.83a18,18,0,0,1-2.82.34c-5,0-9.49-2.83-9.49-12,0-16.48,18.31-25.3,30.46-25.3,11.48,0,25,5,25,24.14,0,26.63-29.29,44.27-56.09,44.27-28,0-39.94-18-39.94-38.95,0-42.27,42.11-71.07,90-71.07,50.43,0,72.9,26,72.9,51.6a14.85,14.85,0,0,1-.16,2.66c-45.61,1.83-76.4,34.12-81.39,54.43a44.74,44.74,0,0,0-1.34,11v1.17c-15.64,9.82-28.79,22.47-28.79,37.11,0,15.65,11.32,20.81,21.8,20.81,33.13,0,65.42-26.46,87.05-63.91C312,324,324,307.36,338.76,295a26.78,26.78,0,0,1,5.66,16.15c0,11.15-4.33,21.8-11.48,29a29.31,29.31,0,0,0-13.15-3c-6.49,0-14,4-14,8.32,0,2.17,3.16,4.5,7,4.5,5,0,11.15-1.67,17.31-4.66a24.88,24.88,0,0,1,3.49,13.48c0,21.3-20.64,43.44-38.44,43.94-13-.17-17.15-7.32-17.15-15.31a18.88,18.88,0,0,1,19.14-19c7.49,0,10.16,4.83,10.16,8.66,0,5.16-3,11-10.16,13.48l.5,1.5c8.16-3,12.49-9.49,12.49-15.15s-4.33-10.48-13-10.48c-12.81,0-21.14,11.15-21.14,21.47,0,8.82,5.66,16.81,19.15,16.81,24.13,0,51.26-21.47,51.26-44.78,0-7.82-4.16-14.14-10.49-18.14,10.66-7.15,19.81-18.31,19.81-31.12,0-8.16-3.66-15.31-10.49-20.81,12.82-9,27.47-14.81,44.28-14.81,16.64,0,32.79,10.65,32.79,29.46,0,20.64-21.64,35.45-41.78,35.45-10,0-19.81-3.49-19.81-14,0-14.31,15.81-23,30-23V301.2c-16.14.17-31.95,10.49-31.95,24.8,0,12,11.31,15.81,22,15.81,21.47,0,45.93-17,45.93-38.28,0-21.14-19.3-30.12-36.95-30.12a100,100,0,0,0-49.1,13.31c-7.82-4.16-18.3-6.82-31.45-6.82-.84,0-1.67.16-2.5.16a14,14,0,0,0,.17-2.66c0-30.29-27.8-53.59-74.57-53.59-56.92,0-98.2,33.28-98.2,72.23,0,22.47,15.48,42.11,45.94,42.11,28.63,0,59.92-18.47,59.92-46.77,0-20-14.15-25.8-26.63-25.8" transform="translate(-21.91 -80)"/><path class="cls-3" d="M596.73,248.37c-.11-.73-.24-1.45-.35-2.18-8-1.62-26.07-2.65-32.75-2.65-57.63,0-135.37,25.91-135.37,81,0,26.08,24.92,49,65.61,49,36.71,0,83.21-17.44,83.21-52.32,0-18.77-15.77-29.4-36.37-29.4-16.11,0-41,8-50.16,28.57l1.83.5c10.3-20.93,32.55-27.24,48.5-27.24,17.77,0,34.38,9.3,34.38,27.74,0,25.08-29.4,49.49-81.89,49.49-25.91,0-58.3-13.28-58.3-45.18,0-60.79,80.39-80.05,128.56-80.05a321.9,321.9,0,0,1,33.1,2.67M566,376.58c0,7.8-14.29,26.74-22.42,26.74-2,0-3-1.33-3-3.32,0-7,13.46-27.07,21.43-27.07,2.49,0,4,1,4,3.65m30.63-128.21q-5.45-.81-10.8-1.37a268.17,268.17,0,0,1,2.92,39.39c0,11.46-.33,63.28-18.6,88.36-1.66-2.32-4.65-4.48-10.46-4.48-13.62,0-30.07,14-30.07,26.07,0,5.49,4.16,8.81,12.46,8.81,43.85,0,57.64-65.28,57.64-115.94a274.31,274.31,0,0,0-3.09-40.84m4,142c3.82-8.13,11.46-17.6,15.61-17.6,1.33,0,1.83.66,1.83,1.66,0,4.32-5.65,14.45-17.44,15.94M633,383.71c-.42-1-.77-.63-1.27-1-10.5,12.21-22.29,19.43-29.39,19.43-3.16,0-3.82-1.5-3.82-4a17.88,17.88,0,0,1,1.33-5.81c15.61-.67,27.57-6.81,27.57-15.61,0-2.5-1.49-6.48-11-6.48-11.79,0-23.09,8.63-27.91,18.27l-.83,2a20.77,20.77,0,0,0-1.32,7c0,3.82.54,7.64,8.84,7.64,14.58,0,30.72-12.71,37.76-21.44M596.37,246.25c.11.7.19,1.41.3,2.12C653.76,256.86,716.6,286.12,716.6,342c0,19.77-11.46,37.54-29.06,37.54-2.83,0-7.81-1-10.13-4.49,1.82-1.66,4.15-4,4.15-6.64a1.46,1.46,0,0,0-1.33-1.49c-2.16,0-5,3.15-5,6.14a4.8,4.8,0,0,0,.16,1.5,81.16,81.16,0,0,1-8.3,6.81,19.07,19.07,0,0,0,.5-4.16c0-7.64-6-12.12-12.63-12.12-11.07,0-22.11,9.29-24.2,18.66.32-.36.64-.68,1-1l1.26.91c-.78.93-1.65,1.91-2.56,2.9,0,.11,0,.22,0,.34,0,4.65,2.66,7,6.81,7,3.65,0,10-3.49,12.29-11.46l-1.16-.16c-1.83,6.14-6.64,10.3-11,10.3-3.33,0-4.82-1.33-4.82-5.49,0-8,8.8-18.27,21.09-18.27,5.15,0,7.15,4.65,7.15,9a22.75,22.75,0,0,1-1.17,7.14c-7.8,5.15-16.44,12-16.44,17.11,0,2.16,2.32,2.49,3.49,2.49,3.65,0,16.44-5.64,20.43-20.76,4.32-3.32,7-5.27,9-6.93,2.82,3.82,8.14,4.11,11.29,4.11,17.44,0,32.06-17.44,32.06-38.87,0-58.54-68.5-87.36-123.06-95.78m-283-55.53c-16.28,5-32.73,7.47-45.85,7.47-36.54,0-76.57-12.62-76.57-55,0-31.06,28.9-44.85,55.48-44.85,40,0,70.59,35.88,70.59,70.26a64.29,64.29,0,0,1-3.65,22.09m72.08-73.91c0-5.32,1.16-6.15,2.33-6.15.49,0,1.49.83,1.49,4.82a54,54,0,0,1-2.16,15.78,66.75,66.75,0,0,1-1.66-14.45M39.85,80a131.49,131.49,0,0,0-17.94,67.37c0,72.91,73.25,119.75,145.67,119.75,55.8,0,129.71-24.58,148.15-74.41,29.57-9.46,58.13-27.07,70.59-52,18.77,49.5,96,72.59,142.35,72.59a224.19,224.19,0,0,0,48.5-5.48,283,283,0,0,1,8.36,37c3.53.38,7.16.87,10.84,1.44a282.56,282.56,0,0,0-9.57-40.58C656.47,187.75,724.69,140.26,758.91,80h-6.33C719.91,138.09,655.46,185.5,586,203.34c-15.35-47-42.86-88.83-78.28-123.34h-9.2c35.77,35.06,63.22,77.79,78,125.5a227.8,227.8,0,0,1-48.33,5.32c-43.85,0-123.74-22.59-139.86-74.75a58.23,58.23,0,0,0,4.32-22.25c0-5.48-2.65-7.15-4.81-7.15-3,0-5.82,3.49-5.82,11a68.48,68.48,0,0,0,3,19.6c-10.63,25.58-39.19,43-68.26,52.48a68.58,68.58,0,0,0,3.32-21.26c0-39.53-33.05-74.41-75.08-74.41-28.56,0-62.28,16.28-62.28,50,0,46.83,56,56.8,84.87,56.8a160.34,160.34,0,0,0,44.68-7c-18.93,46.67-88.69,70.92-144,70.92C88,264.8,31.37,213.14,31.37,149.86,31.37,123.18,38.21,100,49.8,80Z" transform="translate(-21.91 -80)"/></g></svg>